jump_forces.mot																		
version=1																		
nRows=79																		
nColumns=19																		
inDegrees=yes																		
endheader																		
time	ground_force_vx	ground_force_vy	ground_force_vz	ground_force_px	ground_force_py	ground_force_pz	1_ground_force_vx	1_ground_force_vy	1_ground_force_vz	1_ground_force_px	1_ground_force_py	1_ground_force_pz	ground_torque_x	ground_torque_y	ground_torque_z	1_ground_torque_x	1_ground_torque_y	1_ground_torque_z
0	34.775568	381.979889	-0.308112	0.449335	0	-0.263482	-34.517869	394.929055	-8.492529	0.752172	0	-0.268866	0	4.933071	0	0	-5.179514	0
0.00025	34.774113	382.008901	-0.32159	0.449335	0	-0.263482	-34.545295	394.796308	-8.43976	0.752172	0	-0.268866	0	4.931856	0	0	-5.188295	0
0.0005	34.772557	382.038215	-0.335429	0.449335	0	-0.263482	-34.57273	394.659045	-8.386808	0.752172	0	-0.268866	0	4.930526	0	0	-5.19709	0
0.00075	34.770899	382.067781	-0.34961	0.449335	0	-0.263482	-34.600106	394.517395	-8.333765	0.752172	0	-0.268866	0	4.929079	0	0	-5.205872	0
0.001	34.769137	382.097551	-0.364108	0.449335	0	-0.263482	-34.627352	394.371495	-8.280722	0.752172	0	-0.268866	0	4.927519	0	0	-5.214615	0
0.00125	34.76727	382.127474	-0.378903	0.449335	0	-0.263482	-34.654401	394.221496	-8.227767	0.752172	0	-0.268866	0	4.925847	0	0	-5.223293	0
0.0015	34.765295	382.157504	-0.39397	0.449328	0	-0.263497	-34.681186	394.067554	-8.17499	0.752221	0	-0.268925	0	4.924065	0	0	-5.231879	0
0.00175	34.763213	382.187591	-0.409286	0.449321	0	-0.263512	-34.707642	393.909835	-8.122477	0.752269	0	-0.268985	0	4.922176	0	0	-5.240348	0
0.002	34.761022	382.217692	-0.424825	0.449315	0	-0.263527	-34.733707	393.748513	-8.070311	0.752317	0	-0.269043	0	4.920184	0	0	-5.248675	0
0.00225	34.758723	382.24776	-0.440564	0.44931	0	-0.263542	-34.759322	393.583768	-8.018574	0.752363	0	-0.269101	0	4.918091	0	0	-5.256835	0
0.0025	34.756315	382.277753	-0.456476	0.449304	0	-0.263556	-34.78443	393.415785	-7.967345	0.752408	0	-0.269159	0	4.915902	0	0	-5.264803	0
0.00275	34.753799	382.30763	-0.472537	0.4493	0	-0.26357	-34.808979	393.244754	-7.916701	0.752452	0	-0.269215	0	4.913621	0	0	-5.272556	0
0.003	34.751175	382.33735	-0.488722	0.449296	0	-0.263584	-34.832921	393.070868	-7.866713	0.752495	0	-0.26927	0	4.911253	0	0	-5.280071	0
0.00325	34.748445	382.366875	-0.505005	0.449292	0	-0.263598	-34.856209	392.894323	-7.817451	0.752537	0	-0.269324	0	4.908802	0	0	-5.287327	0
0.0035	34.745611	382.396171	-0.521362	0.449289	0	-0.263612	-34.878804	392.715318	-7.76898	0.752578	0	-0.269377	0	4.906274	0	0	-5.294303	0
0.00375	34.742672	382.425202	-0.537769	0.449286	0	-0.263625	-34.900669	392.534049	-7.721361	0.752617	0	-0.269429	0	4.903673	0	0	-5.300981	0
0.004	34.739632	382.453937	-0.554202	0.449284	0	-0.263638	-34.921771	392.350716	-7.674652	0.752654	0	-0.26948	0	4.901006	0	0	-5.307341	0
0.00425	34.736491	382.482346	-0.570637	0.449282	0	-0.263651	-34.942085	392.165515	-7.628904	0.752691	0	-0.269529	0	4.898277	0	0	-5.313367	0
0.0045	34.733252	382.5104	-0.587053	0.449281	0	-0.263664	-34.961587	391.978641	-7.584168	0.752726	0	-0.269576	0	4.895492	0	0	-5.319043	0
0.00475	34.729918	382.538073	-0.603427	0.449281	0	-0.263677	-34.980259	391.790286	-7.540485	0.752759	0	-0.269622	0	4.892657	0	0	-5.324356	0
0.005	34.726489	382.565341	-0.61974	0.449281	0	-0.263689	-34.998089	391.600638	-7.497896	0.752791	0	-0.269666	0	4.889777	0	0	-5.329292	0
0.00525	34.722969	382.592183	-0.635971	0.449282	0	-0.263701	-35.015067	391.40988	-7.456435	0.752821	0	-0.269709	0	4.886858	0	0	-5.33384	0
0.0055	34.719359	382.618578	-0.652103	0.449283	0	-0.263713	-35.031191	391.218192	-7.41613	0.75285	0	-0.26975	0	4.883905	0	0	-5.33799	0
0.00575	34.715661	382.644508	-0.668118	0.449285	0	-0.263725	-35.046461	391.025746	-7.377008	0.752878	0	-0.26979	0	4.880923	0	0	-5.341734	0
0.006	34.711878	382.669957	-0.684001	0.449287	0	-0.263737	-35.060881	390.832707	-7.339087	0.752904	0	-0.269828	0	4.877918	0	0	-5.345065	0
0.00625	34.708011	382.694911	-0.699738	0.44929	0	-0.263748	-35.07446	390.639235	-7.302384	0.752928	0	-0.269864	0	4.874895	0	0	-5.347978	0
0.0065	34.704062	382.71936	-0.715316	0.449294	0	-0.263759	-35.087213	390.445482	-7.266907	0.752951	0	-0.269899	0	4.871857	0	0	-5.350468	0
0.00675	34.700033	382.743294	-0.730726	0.449298	0	-0.26377	-35.099155	390.25159	-7.232663	0.752973	0	-0.269931	0	4.86881	0	0	-5.352534	0
0.007	34.695924	382.766706	-0.745957	0.449302	0	-0.263781	-35.110307	390.057695	-7.199651	0.752994	0	-0.269963	0	4.865757	0	0	-5.354173	0
0.00725	34.691736	382.789591	-0.761003	0.449307	0	-0.263792	-35.120691	389.863922	-7.167869	0.753013	0	-0.269992	0	4.862702	0	0	-5.355387	0
0.0075	34.687471	382.811948	-0.775859	0.449313	0	-0.263803	-35.130336	389.670387	-7.137307	0.753031	0	-0.27002	0	4.859649	0	0	-5.356177	0
0.00775	34.683129	382.833776	-0.790521	0.449319	0	-0.263814	-35.139269	389.477198	-7.107953	0.753048	0	-0.270046	0	4.8566	0	0	-5.356545	0
0.008	34.67871	382.855077	-0.804989	0.449326	0	-0.263825	-35.147522	389.284451	-7.079789	0.753064	0	-0.270071	0	4.853558	0	0	-5.356496	0
0.00825	34.674213	382.875858	-0.819262	0.449333	0	-0.263835	-35.155129	389.092235	-7.052795	0.753079	0	-0.270095	0	4.850525	0	0	-5.356036	0
0.0085	34.669638	382.896126	-0.833343	0.44934	0	-0.263846	-35.162124	388.900627	-7.026943	0.753093	0	-0.270116	0	4.847503	0	0	-5.35517	0
0.00875	34.664984	382.915889	-0.847238	0.449348	0	-0.263857	-35.168545	388.709694	-7.002206	0.753106	0	-0.270137	0	4.844493	0	0	-5.353907	0
0.009	34.660249	382.935162	-0.860951	0.449357	0	-0.263868	-35.174429	388.519494	-6.978551	0.753118	0	-0.270156	0	4.841496	0	0	-5.352254	0
0.00925	34.655433	382.953957	-0.874492	0.449366	0	-0.263879	-35.179815	388.330075	-6.955941	0.753129	0	-0.270174	0	4.838513	0	0	-5.350222	0
0.0095	34.650532	382.972291	-0.887871	0.449375	0	-0.26389	-35.184743	388.141475	-6.934337	0.75314	0	-0.270191	0	4.835542	0	0	-5.347821	0
0.00975	34.645546	382.990185	-0.901099	0.449384	0	-0.263901	-35.189252	387.953722	-6.913697	0.75315	0	-0.270206	0	4.832585	0	0	-5.345062	0
0.01	34.640471	383.007658	-0.91419	0.449394	0	-0.263912	-35.193382	387.766836	-6.893975	0.75316	0	-0.27022	0	4.82964	0	0	-5.341956	0
0.01025	34.635304	383.024734	-0.927158	0.449405	0	-0.263924	-35.197173	387.580828	-6.875126	0.753169	0	-0.270234	0	4.826706	0	0	-5.338518	0
0.0105	34.630045	383.041438	-0.94002	0.449415	0	-0.263936	-35.200663	387.395699	-6.857099	0.753177	0	-0.270246	0	4.82378	0	0	-5.334759	0
0.01075	34.624688	383.057797	-0.952792	0.449426	0	-0.263947	-35.203893	387.211442	-6.839842	0.753186	0	-0.270258	0	4.820863	0	0	-5.330694	0
0.011	34.619233	383.073839	-0.965494	0.449438	0	-0.26396	-35.206898	387.028043	-6.823303	0.753194	0	-0.270269	0	4.81795	0	0	-5.326338	0
0.01125	34.613677	383.089594	-0.978144	0.449449	0	-0.263972	-35.209717	386.84548	-6.807428	0.753202	0	-0.270279	0	4.81504	0	0	-5.321705	0
0.0115	34.608018	383.105094	-0.990763	0.449461	0	-0.263985	-35.212385	386.663725	-6.792161	0.753209	0	-0.270288	0	4.81213	0	0	-5.31681	0
0.01175	34.602253	383.120371	-1.003372	0.449473	0	-0.263998	-35.214936	386.482742	-6.777445	0.753217	0	-0.270297	0	4.809216	0	0	-5.311669	0
0.012	34.596381	383.135459	-1.015991	0.449486	0	-0.264012	-35.217404	386.30249	-6.763223	0.753224	0	-0.270306	0	4.806296	0	0	-5.306297	0
0.01225	34.590401	383.150393	-1.028642	0.449498	0	-0.264026	-35.21982	386.122924	-6.74944	0.753232	0	-0.270314	0	4.803366	0	0	-5.300712	0
0.0125	34.584313	383.165208	-1.041346	0.449511	0	-0.26404	-35.222215	385.943991	-6.736036	0.753239	0	-0.270321	0	4.800422	0	0	-5.29493	0
0.01275	34.578116	383.17994	-1.054125	0.449524	0	-0.264055	-35.224617	385.765638	-6.722956	0.753247	0	-0.270329	0	4.797461	0	0	-5.288967	0
0.013	34.571812	383.194625	-1.067	0.449537	0	-0.26407	-35.227052	385.587806	-6.710143	0.753254	0	-0.270336	0	4.794479	0	0	-5.282839	0
0.01325	34.565401	383.209301	-1.079991	0.44955	0	-0.264085	-35.229546	385.410434	-6.697541	0.753262	0	-0.270343	0	4.791472	0	0	-5.276565	0
0.0135	34.558887	383.224004	-1.093118	0.449563	0	-0.264101	-35.232122	385.233459	-6.685094	0.753269	0	-0.27035	0	4.788437	0	0	-5.27016	0
0.01375	34.552273	383.238772	-1.1064	0.449576	0	-0.264118	-35.234801	385.056816	-6.67275	0.753277	0	-0.270357	0	4.785369	0	0	-5.263641	0
0.014	34.545562	383.253641	-1.119856	0.449589	0	-0.264135	-35.237603	384.880441	-6.660455	0.753285	0	-0.270365	0	4.782266	0	0	-5.257026	0
0.01425	34.53876	383.268649	-1.1335	0.449603	0	-0.264152	-35.240546	384.704268	-6.64816	0.753293	0	-0.270372	0	4.779123	0	0	-5.250331	0
0.0145	34.531873	383.283832	-1.14735	0.449616	0	-0.26417	-35.243646	384.528234	-6.635813	0.753301	0	-0.270379	0	4.775937	0	0	-5.243573	0
0.01475	34.524909	383.299227	-1.161419	0.449629	0	-0.264189	-35.246917	384.352275	-6.623368	0.753309	0	-0.270387	0	4.772705	0	0	-5.23677	0
0.015	34.517874	383.31487	-1.175718	0.449643	0	-0.264208	-35.250371	384.176329	-6.61078	0.753318	0	-0.270395	0	4.769424	0	0	-5.229937	0
0.01525	34.510779	383.330796	-1.190257	0.449656	0	-0.264227	-35.25402	384.000338	-6.598005	0.753326	0	-0.270403	0	4.76609	0	0	-5.223091	0
0.0155	34.503634	383.347041	-1.205046	0.449669	0	-0.264247	-35.257872	383.824246	-6.585002	0.753335	0	-0.270411	0	4.762702	0	0	-5.216248	0
0.01575	34.496449	383.363638	-1.220089	0.449682	0	-0.264268	-35.261935	383.648001	-6.571731	0.753343	0	-0.27042	0	4.759258	0	0	-5.209426	0
0.016	34.489237	383.380622	-1.235391	0.449694	0	-0.264289	-35.266214	383.471553	-6.558158	0.753352	0	-0.27043	0	4.755754	0	0	-5.202638	0
0.01625	34.482011	383.398025	-1.250952	0.449707	0	-0.26431	-35.270713	383.294859	-6.544247	0.753361	0	-0.27044	0	4.752191	0	0	-5.195903	0
0.0165	34.474784	383.41588	-1.266772	0.449719	0	-0.264332	-35.275434	383.117878	-6.529967	0.753369	0	-0.27045	0	4.748565	0	0	-5.189234	0
0.01675	34.46757	383.434218	-1.282847	0.449732	0	-0.264355	-35.280379	382.940576	-6.515289	0.753378	0	-0.270461	0	4.744878	0	0	-5.182647	0
0.017	34.460384	383.45307	-1.299171	0.449744	0	-0.264377	-35.285546	382.762923	-6.500187	0.753387	0	-0.270472	0	4.741128	0	0	-5.176156	0
0.01725	34.453243	383.472467	-1.315735	0.449755	0	-0.264401	-35.290934	382.584894	-6.484637	0.753395	0	-0.270484	0	4.737314	0	0	-5.169777	0
0.0175	34.446161	383.492436	-1.332529	0.449767	0	-0.264425	-35.296537	382.406473	-6.468618	0.753404	0	-0.270497	0	4.733439	0	0	-5.163523	0
0.01775	34.439156	383.513006	-1.349537	0.449778	0	-0.264449	-35.30235	382.227644	-6.452111	0.753412	0	-0.27051	0	4.729502	0	0	-5.157407	0
0.018	34.432242	383.534205	-1.366745	0.449789	0	-0.264474	-35.308368	382.048402	-6.435098	0.75342	0	-0.270523	0	4.725504	0	0	-5.151443	0
0.01825	34.425437	383.556059	-1.384133	0.449799	0	-0.264499	-35.314581	381.868746	-6.417567	0.753428	0	-0.270538	0	4.721447	0	0	-5.145643	0
0.0185	34.418757	383.578593	-1.401681	0.449809	0	-0.264524	-35.32098	381.688679	-6.399506	0.753436	0	-0.270553	0	4.717334	0	0	-5.140019	0
0.01875	34.412219	383.601832	-1.419366	0.449819	0	-0.26455	-35.327553	381.508213	-6.380906	0.753444	0	-0.270568	0	4.713166	0	0	-5.134582	0
0.019	34.405837	383.625798	-1.437162	0.449828	0	-0.264576	-35.33429	381.327364	-6.361758	0.753451	0	-0.270584	0	4.708946	0	0	-5.129343	0
0.01925	34.399628	383.650515	-1.455043	0.449837	0	-0.264602	-35.341176	381.146155	-6.342059	0.753458	0	-0.270601	0	4.704677	0	0	-5.12431	0
0.0195	34.393605	383.676004	-1.47298	0.449845	0	-0.264629	-35.348196	380.964613	-6.321804	0.753465	0	-0.270618	0	4.700363	0	0	-5.119494	0
